<svg width="109" height="44" viewBox="0 0 109 44" fill="none" xmlns="http://www.w3.org/2000/svg">
<circle cx="67.5" cy="2.5" r="2.5" fill="#999999"/>
<circle cx="80.5" cy="2.5" r="2.5" fill="#999999"/>
<circle cx="93.5" cy="2.5" r="2.5" fill="#999999"/>
<circle cx="106.5" cy="2.5" r="2.5" fill="#999999"/>
<circle cx="67.5" cy="15.5" r="2.5" fill="#999999"/>
<circle cx="80.5" cy="15.5" r="2.5" fill="#999999"/>
<circle cx="93.5" cy="15.5" r="2.5" fill="#999999"/>
<circle cx="106.5" cy="15.5" r="2.5" fill="#999999"/>
<circle cx="67.5" cy="28.5" r="2.5" fill="#999999"/>
<circle cx="80.5" cy="28.5" r="2.5" fill="#999999"/>
<circle cx="93.5" cy="28.5" r="2.5" fill="#999999"/>
<circle cx="106.5" cy="28.5" r="2.5" fill="#999999"/>
<circle cx="67.5" cy="41.5" r="2.5" fill="#999999"/>
<circle cx="80.5" cy="41.5" r="2.5" fill="#999999"/>
<circle cx="93.5" cy="41.5" r="2.5" fill="#999999"/>
<circle cx="106.5" cy="41.5" r="2.5" fill="#999999"/>
<circle cx="2.5" cy="2.5" r="2.5" fill="#999999"/>
<circle cx="15.5" cy="2.5" r="2.5" fill="#999999"/>
<circle cx="28.5" cy="2.5" r="2.5" fill="#999999"/>
<circle cx="41.5" cy="2.5" r="2.5" fill="#999999"/>
<circle cx="54.5" cy="2.5" r="2.5" fill="#999999"/>
<circle cx="2.5" cy="15.5" r="2.5" fill="#999999"/>
<circle cx="15.5" cy="15.5" r="2.5" fill="#999999"/>
<circle cx="28.5" cy="15.5" r="2.5" fill="#999999"/>
<circle cx="41.5" cy="15.5" r="2.5" fill="#999999"/>
<circle cx="54.5" cy="15.5" r="2.5" fill="#999999"/>
<circle cx="2.5" cy="28.5" r="2.5" fill="#999999"/>
<circle cx="15.5" cy="28.5" r="2.5" fill="#999999"/>
<circle cx="28.5" cy="28.5" r="2.5" fill="#999999"/>
<circle cx="41.5" cy="28.5" r="2.5" fill="#999999"/>
<circle cx="54.5" cy="28.5" r="2.5" fill="#999999"/>
<circle cx="2.5" cy="41.5" r="2.5" fill="#999999"/>
<circle cx="15.5" cy="41.5" r="2.5" fill="#999999"/>
<circle cx="28.5" cy="41.5" r="2.5" fill="#999999"/>
<circle cx="41.5" cy="41.5" r="2.5" fill="#999999"/>
<circle cx="54.5" cy="41.5" r="2.5" fill="#999999"/>
</svg>
